<mxfile host="app.diagrams.net" modified="2021-06-08T12:51:56.835Z" agent="5.0 (Windows NT 10.0; Win64; x64) AppleWebKit/537.36 (KHTML, like Gecko) Chrome/91.0.4472.77 Safari/537.36 Edg/91.0.864.41" etag="eaHnUby6_3-Z75oYkHrt" version="14.6.6" type="github">
  <diagram id="C5RBs43oDa-KdzZeNtuy" name="Page-1">
    <mxGraphModel dx="1422" dy="831" grid="1" gridSize="10" guides="1" tooltips="1" connect="1" arrows="1" fold="1" page="1" pageScale="1" pageWidth="827" pageHeight="1169" math="0" shadow="0">
      <root>
        <mxCell id="WIyWlLk6GJQsqaUBKTNV-0" />
        <mxCell id="WIyWlLk6GJQsqaUBKTNV-1" parent="WIyWlLk6GJQsqaUBKTNV-0" />
        <mxCell id="O6joIR55s3z16zyFuxg0-4" value="" style="edgeStyle=orthogonalEdgeStyle;rounded=0;orthogonalLoop=1;jettySize=auto;html=1;" edge="1" parent="WIyWlLk6GJQsqaUBKTNV-1" source="O6joIR55s3z16zyFuxg0-0" target="O6joIR55s3z16zyFuxg0-3">
          <mxGeometry relative="1" as="geometry" />
        </mxCell>
        <mxCell id="O6joIR55s3z16zyFuxg0-0" value="&lt;br&gt;&lt;br&gt;外来人员&lt;br&gt;outsiders" style="shape=actor;whiteSpace=wrap;html=1;" vertex="1" parent="WIyWlLk6GJQsqaUBKTNV-1">
          <mxGeometry x="240" y="70" width="70" height="80" as="geometry" />
        </mxCell>
        <mxCell id="O6joIR55s3z16zyFuxg0-11" value="" style="edgeStyle=orthogonalEdgeStyle;rounded=0;orthogonalLoop=1;jettySize=auto;html=1;" edge="1" parent="WIyWlLk6GJQsqaUBKTNV-1" source="O6joIR55s3z16zyFuxg0-3">
          <mxGeometry relative="1" as="geometry">
            <mxPoint x="275" y="270" as="targetPoint" />
          </mxGeometry>
        </mxCell>
        <mxCell id="O6joIR55s3z16zyFuxg0-3" value="进入校园验证" style="rounded=1;whiteSpace=wrap;html=1;" vertex="1" parent="WIyWlLk6GJQsqaUBKTNV-1">
          <mxGeometry x="220" y="190" width="110" height="40" as="geometry" />
        </mxCell>
        <mxCell id="O6joIR55s3z16zyFuxg0-6" value="" style="edgeStyle=orthogonalEdgeStyle;rounded=0;orthogonalLoop=1;jettySize=auto;html=1;" edge="1" parent="WIyWlLk6GJQsqaUBKTNV-1" source="O6joIR55s3z16zyFuxg0-5" target="O6joIR55s3z16zyFuxg0-3">
          <mxGeometry relative="1" as="geometry" />
        </mxCell>
        <mxCell id="O6joIR55s3z16zyFuxg0-5" value="&lt;br&gt;门卫&lt;br&gt;admin" style="shape=actor;whiteSpace=wrap;html=1;" vertex="1" parent="WIyWlLk6GJQsqaUBKTNV-1">
          <mxGeometry x="410" y="170" width="70" height="80" as="geometry" />
        </mxCell>
        <mxCell id="O6joIR55s3z16zyFuxg0-8" value="" style="edgeStyle=orthogonalEdgeStyle;rounded=0;orthogonalLoop=1;jettySize=auto;html=1;" edge="1" parent="WIyWlLk6GJQsqaUBKTNV-1" source="O6joIR55s3z16zyFuxg0-7" target="O6joIR55s3z16zyFuxg0-3">
          <mxGeometry relative="1" as="geometry" />
        </mxCell>
        <mxCell id="O6joIR55s3z16zyFuxg0-7" value="申请池" style="shape=cylinder3;whiteSpace=wrap;html=1;boundedLbl=1;backgroundOutline=1;size=15;" vertex="1" parent="WIyWlLk6GJQsqaUBKTNV-1">
          <mxGeometry x="60" y="175" width="60" height="70" as="geometry" />
        </mxCell>
        <mxCell id="O6joIR55s3z16zyFuxg0-9" value="申请流" style="text;html=1;strokeColor=none;fillColor=none;align=center;verticalAlign=middle;whiteSpace=wrap;rounded=0;" vertex="1" parent="WIyWlLk6GJQsqaUBKTNV-1">
          <mxGeometry x="140" y="180" width="40" height="20" as="geometry" />
        </mxCell>
        <mxCell id="O6joIR55s3z16zyFuxg0-16" value="" style="edgeStyle=orthogonalEdgeStyle;rounded=0;orthogonalLoop=1;jettySize=auto;html=1;" edge="1" parent="WIyWlLk6GJQsqaUBKTNV-1" source="O6joIR55s3z16zyFuxg0-12" target="O6joIR55s3z16zyFuxg0-15">
          <mxGeometry relative="1" as="geometry" />
        </mxCell>
        <mxCell id="O6joIR55s3z16zyFuxg0-20" value="" style="edgeStyle=orthogonalEdgeStyle;rounded=0;orthogonalLoop=1;jettySize=auto;html=1;" edge="1" parent="WIyWlLk6GJQsqaUBKTNV-1" source="O6joIR55s3z16zyFuxg0-12" target="O6joIR55s3z16zyFuxg0-19">
          <mxGeometry relative="1" as="geometry" />
        </mxCell>
        <mxCell id="O6joIR55s3z16zyFuxg0-12" value="是否有对应的申请" style="rhombus;whiteSpace=wrap;html=1;" vertex="1" parent="WIyWlLk6GJQsqaUBKTNV-1">
          <mxGeometry x="220" y="270" width="110" height="90" as="geometry" />
        </mxCell>
        <mxCell id="O6joIR55s3z16zyFuxg0-15" value="门卫指导填写申请" style="rounded=1;whiteSpace=wrap;html=1;" vertex="1" parent="WIyWlLk6GJQsqaUBKTNV-1">
          <mxGeometry x="50" y="293.75" width="100" height="42.5" as="geometry" />
        </mxCell>
        <mxCell id="O6joIR55s3z16zyFuxg0-18" value="No" style="text;html=1;strokeColor=none;fillColor=none;align=center;verticalAlign=middle;whiteSpace=wrap;rounded=0;" vertex="1" parent="WIyWlLk6GJQsqaUBKTNV-1">
          <mxGeometry x="170" y="297.5" width="40" height="20" as="geometry" />
        </mxCell>
        <mxCell id="O6joIR55s3z16zyFuxg0-23" value="" style="edgeStyle=orthogonalEdgeStyle;rounded=0;orthogonalLoop=1;jettySize=auto;html=1;" edge="1" parent="WIyWlLk6GJQsqaUBKTNV-1" source="O6joIR55s3z16zyFuxg0-19" target="O6joIR55s3z16zyFuxg0-22">
          <mxGeometry relative="1" as="geometry" />
        </mxCell>
        <mxCell id="O6joIR55s3z16zyFuxg0-27" value="" style="edgeStyle=orthogonalEdgeStyle;rounded=0;orthogonalLoop=1;jettySize=auto;html=1;" edge="1" parent="WIyWlLk6GJQsqaUBKTNV-1" source="O6joIR55s3z16zyFuxg0-19" target="O6joIR55s3z16zyFuxg0-26">
          <mxGeometry relative="1" as="geometry" />
        </mxCell>
        <mxCell id="O6joIR55s3z16zyFuxg0-19" value="申请状态&lt;br&gt;是否为接受" style="rhombus;whiteSpace=wrap;html=1;" vertex="1" parent="WIyWlLk6GJQsqaUBKTNV-1">
          <mxGeometry x="220" y="410" width="110" height="90" as="geometry" />
        </mxCell>
        <mxCell id="O6joIR55s3z16zyFuxg0-21" value="Yes" style="text;html=1;strokeColor=none;fillColor=none;align=center;verticalAlign=middle;whiteSpace=wrap;rounded=0;" vertex="1" parent="WIyWlLk6GJQsqaUBKTNV-1">
          <mxGeometry x="280" y="380" width="40" height="20" as="geometry" />
        </mxCell>
        <mxCell id="O6joIR55s3z16zyFuxg0-22" value="不与访问" style="rounded=1;whiteSpace=wrap;html=1;" vertex="1" parent="WIyWlLk6GJQsqaUBKTNV-1">
          <mxGeometry x="50" y="437.5" width="100" height="35" as="geometry" />
        </mxCell>
        <mxCell id="O6joIR55s3z16zyFuxg0-25" value="No" style="text;html=1;strokeColor=none;fillColor=none;align=center;verticalAlign=middle;whiteSpace=wrap;rounded=0;" vertex="1" parent="WIyWlLk6GJQsqaUBKTNV-1">
          <mxGeometry x="170" y="430" width="40" height="20" as="geometry" />
        </mxCell>
        <mxCell id="O6joIR55s3z16zyFuxg0-28" style="edgeStyle=orthogonalEdgeStyle;rounded=0;orthogonalLoop=1;jettySize=auto;html=1;exitX=0;exitY=0.5;exitDx=0;exitDy=0;entryX=0.5;entryY=1;entryDx=0;entryDy=0;" edge="1" parent="WIyWlLk6GJQsqaUBKTNV-1" source="O6joIR55s3z16zyFuxg0-26" target="O6joIR55s3z16zyFuxg0-22">
          <mxGeometry relative="1" as="geometry" />
        </mxCell>
        <mxCell id="O6joIR55s3z16zyFuxg0-33" value="" style="edgeStyle=orthogonalEdgeStyle;rounded=0;orthogonalLoop=1;jettySize=auto;html=1;" edge="1" parent="WIyWlLk6GJQsqaUBKTNV-1" source="O6joIR55s3z16zyFuxg0-26" target="O6joIR55s3z16zyFuxg0-31">
          <mxGeometry relative="1" as="geometry" />
        </mxCell>
        <mxCell id="O6joIR55s3z16zyFuxg0-26" value="检查申请基本&lt;br&gt;信息是否合法" style="rhombus;whiteSpace=wrap;html=1;" vertex="1" parent="WIyWlLk6GJQsqaUBKTNV-1">
          <mxGeometry x="220" y="540" width="110" height="102.5" as="geometry" />
        </mxCell>
        <mxCell id="O6joIR55s3z16zyFuxg0-29" value="No" style="text;html=1;strokeColor=none;fillColor=none;align=center;verticalAlign=middle;whiteSpace=wrap;rounded=0;" vertex="1" parent="WIyWlLk6GJQsqaUBKTNV-1">
          <mxGeometry x="170" y="564.5" width="40" height="20" as="geometry" />
        </mxCell>
        <mxCell id="O6joIR55s3z16zyFuxg0-30" value="Yes" style="text;html=1;strokeColor=none;fillColor=none;align=center;verticalAlign=middle;whiteSpace=wrap;rounded=0;" vertex="1" parent="WIyWlLk6GJQsqaUBKTNV-1">
          <mxGeometry x="280" y="510" width="40" height="20" as="geometry" />
        </mxCell>
        <mxCell id="O6joIR55s3z16zyFuxg0-35" value="" style="edgeStyle=orthogonalEdgeStyle;rounded=0;orthogonalLoop=1;jettySize=auto;html=1;" edge="1" parent="WIyWlLk6GJQsqaUBKTNV-1" source="O6joIR55s3z16zyFuxg0-31" target="O6joIR55s3z16zyFuxg0-34">
          <mxGeometry relative="1" as="geometry" />
        </mxCell>
        <mxCell id="O6joIR55s3z16zyFuxg0-31" value="同意进入" style="rounded=1;whiteSpace=wrap;html=1;" vertex="1" parent="WIyWlLk6GJQsqaUBKTNV-1">
          <mxGeometry x="390" y="571.88" width="130" height="38.75" as="geometry" />
        </mxCell>
        <mxCell id="O6joIR55s3z16zyFuxg0-32" value="Yes" style="text;html=1;strokeColor=none;fillColor=none;align=center;verticalAlign=middle;whiteSpace=wrap;rounded=0;" vertex="1" parent="WIyWlLk6GJQsqaUBKTNV-1">
          <mxGeometry x="340" y="565" width="40" height="20" as="geometry" />
        </mxCell>
        <mxCell id="O6joIR55s3z16zyFuxg0-38" value="" style="edgeStyle=orthogonalEdgeStyle;rounded=0;orthogonalLoop=1;jettySize=auto;html=1;" edge="1" parent="WIyWlLk6GJQsqaUBKTNV-1" source="O6joIR55s3z16zyFuxg0-34" target="O6joIR55s3z16zyFuxg0-37">
          <mxGeometry relative="1" as="geometry" />
        </mxCell>
        <mxCell id="O6joIR55s3z16zyFuxg0-34" value="申请状态改为已进入" style="rounded=1;whiteSpace=wrap;html=1;" vertex="1" parent="WIyWlLk6GJQsqaUBKTNV-1">
          <mxGeometry x="600" y="571.88" width="130" height="38.75" as="geometry" />
        </mxCell>
        <mxCell id="O6joIR55s3z16zyFuxg0-36" value="合法的申请" style="text;html=1;strokeColor=none;fillColor=none;align=center;verticalAlign=middle;whiteSpace=wrap;rounded=0;" vertex="1" parent="WIyWlLk6GJQsqaUBKTNV-1">
          <mxGeometry x="520" y="565" width="80" height="20" as="geometry" />
        </mxCell>
        <mxCell id="O6joIR55s3z16zyFuxg0-41" value="" style="edgeStyle=orthogonalEdgeStyle;rounded=0;orthogonalLoop=1;jettySize=auto;html=1;" edge="1" parent="WIyWlLk6GJQsqaUBKTNV-1" source="O6joIR55s3z16zyFuxg0-37" target="O6joIR55s3z16zyFuxg0-40">
          <mxGeometry relative="1" as="geometry" />
        </mxCell>
        <mxCell id="O6joIR55s3z16zyFuxg0-37" value="更新申请实际进入时间" style="rounded=1;whiteSpace=wrap;html=1;" vertex="1" parent="WIyWlLk6GJQsqaUBKTNV-1">
          <mxGeometry x="600" y="471.25" width="130" height="38.75" as="geometry" />
        </mxCell>
        <mxCell id="O6joIR55s3z16zyFuxg0-39" value="已进入的申请" style="text;html=1;strokeColor=none;fillColor=none;align=center;verticalAlign=middle;whiteSpace=wrap;rounded=0;" vertex="1" parent="WIyWlLk6GJQsqaUBKTNV-1">
          <mxGeometry x="670" y="530" width="80" height="20" as="geometry" />
        </mxCell>
        <mxCell id="O6joIR55s3z16zyFuxg0-40" value="申请池" style="shape=cylinder;whiteSpace=wrap;html=1;boundedLbl=1;backgroundOutline=1;rounded=1;" vertex="1" parent="WIyWlLk6GJQsqaUBKTNV-1">
          <mxGeometry x="632.5" y="369.99" width="65" height="60.01" as="geometry" />
        </mxCell>
        <mxCell id="O6joIR55s3z16zyFuxg0-42" value="已进入的申请" style="text;html=1;strokeColor=none;fillColor=none;align=center;verticalAlign=middle;whiteSpace=wrap;rounded=0;" vertex="1" parent="WIyWlLk6GJQsqaUBKTNV-1">
          <mxGeometry x="670" y="437.5" width="80" height="20" as="geometry" />
        </mxCell>
      </root>
    </mxGraphModel>
  </diagram>
</mxfile>
